# File created by Blade
# Date/Time:  Thu Jan 22 19:18:16 2015
# Frame Rate: 120.000 fps
#------------------------------------------------------
:FULLY-SPECIFIED
:DEGREES
833
root 1.550999 31.840987 -8.709981 88.421817 3.196630 2.216606
RightUpLeg -92.547578 -17.743466 -4.180512
RightLeg -1.479084 -0.000000 0.000000
RightFoot -0.542834 -4.783040 17.987817
RightToeBase 7.423316 -0.000000 -0.000000
LeftUpLeg -98.656531 15.414122 7.247101
LeftLeg 5.197678 -0.000000 -0.000000
LeftFoot 1.343518 5.390049 -26.426863
LeftToeBase 9.287647 -0.000000 -0.000000
Spine 43.289630 -3.408018 -6.203478
RightShoulder 6.149317 27.466579 -40.378300
RightArm 53.874220 21.698564 57.072078
RightForeArm -34.579215 -0.000000 43.863415
RightHand 11.207053 -0.000000 -21.490185
RightHandThumb1 -24.326973 -0.000000 -32.862282
LeftShoulder 3.487412 -22.773584 46.859326
LeftArm 36.825400 -25.152964 -37.094011
LeftForeArm 46.283218 -0.000000 52.753642
LeftHand -2.265119 -0.000000 21.081059
LeftHandThumb1 -26.253704 0.000000 33.147579
Head -47.460198 1.253194 -6.065199
834
root 1.529185 31.833410 -8.742768 88.160604 3.521477 2.084636
RightUpLeg -92.214237 -17.579310 -4.166556
RightLeg -1.534951 -0.000000 0.000000
RightFoot -0.529844 -5.002909 17.899435
RightToeBase 7.236499 -0.000000 -0.000000
LeftUpLeg -98.502298 15.557951 7.631726
LeftLeg 5.217984 -0.000000 -0.000000
LeftFoot 1.432847 5.422780 -26.439531
LeftToeBase 9.368502 -0.000000 -0.000000
Spine 43.060706 -3.430178 -6.267515
RightShoulder 6.255228 27.804057 -40.436944
RightArm 53.367470 21.307954 57.377627
RightForeArm -34.447146 -0.000000 44.027925
RightHand 11.186026 -0.000000 -20.793719
RightHandThumb1 -24.326973 -0.000000 -32.862282
LeftShoulder 3.648992 -22.202681 46.578519
LeftArm 36.696952 -25.423198 -36.812214
LeftForeArm 45.716585 0.000000 52.891025
LeftHand -1.838299 -0.000000 21.056675
LeftHandThumb1 -26.253704 0.000000 33.147579
Head -47.231677 1.493121 -6.414322
835
root 1.514157 31.826432 -8.771810 87.874703 3.777740 1.968790
RightUpLeg -91.811225 -17.449379 -4.333804
RightLeg -1.618820 -0.000000 0.000000
RightFoot -0.591360 -5.341458 17.903277
RightToeBase 7.515947 -0.000000 -0.000000
LeftUpLeg -98.311823 15.652842 7.920058
LeftLeg 5.233580 -0.000000 -0.000000
LeftFoot 1.495487 5.434354 -26.475170
LeftToeBase 9.327849 -0.000000 -0.000000
Spine 42.877673 -3.533333 -6.440891
RightShoulder 6.430151 28.274483 -40.432860
RightArm 52.822474 20.847588 57.599930
RightForeArm -34.178503 -0.000000 44.175248
RightHand 10.895774 -0.000000 -20.635844
RightHandThumb1 -24.326973 -0.000000 -32.862282
LeftShoulder 3.773050 -21.490512 46.326803
LeftArm 36.654467 -25.966186 -36.776857
LeftForeArm 44.856833 -0.000000 53.065304
LeftHand -1.139158 -0.000000 20.329799
LeftHandThumb1 -26.253704 0.000000 33.147579
Head -46.984313 1.785083 -6.846652
836
root 1.500409 31.820926 -8.802056 87.647711 4.011858 1.854354
RightUpLeg -91.506681 -17.330547 -4.421466
RightLeg -1.676945 -0.000000 0.000000
RightFoot -0.645854 -5.582656 18.015877
RightToeBase 7.720242 -0.000000 -0.000000
LeftUpLeg -98.188095 15.746705 8.124524
LeftLeg 5.230421 -0.000000 -0.000000
LeftFoot 1.615724 5.409236 -26.566579
LeftToeBase 9.205134 -0.000000 -0.000000
Spine 42.650092 -3.742262 -6.673278
RightShoulder 6.623195 28.720328 -40.469717
RightArm 52.357307 20.397944 57.874339
RightForeArm -34.012003 0.000000 44.407648
RightHand 10.924252 -0.000000 -19.902104
RightHandThumb1 -24.326973 -0.000000 -32.862282
LeftShoulder 3.803957 -20.607180 46.039754
LeftArm 36.607116 -26.465592 -36.607854
LeftForeArm 44.353805 -0.000000 53.044761
LeftHand -0.572113 -0.000000 20.443886
LeftHandThumb1 -26.253704 0.000000 33.147579
Head -46.752798 2.119627 -7.333496
837
root 1.489067 31.813104 -8.829259 87.391502 4.260366 1.761788
RightUpLeg -91.121862 -17.218887 -4.570261
RightLeg -1.792870 -0.000000 0.000000
RightFoot -0.643842 -5.907045 17.978722
RightToeBase 7.547109 -0.000000 -0.000000
LeftUpLeg -98.038958 15.808610 8.330008
LeftLeg 5.224865 -0.000000 -0.000000
LeftFoot 1.708932 5.380826 -26.449250
LeftToeBase 9.299494 -0.000000 -0.000000
Spine 42.469066 -3.841344 -6.843229
RightShoulder 6.775414 29.174145 -40.436015
RightArm 51.706736 19.992844 58.054923
RightForeArm -33.563994 -0.000000 44.800821
RightHand 10.837031 0.000000 -19.215369
RightHandThumb1 -24.326973 -0.000000 -32.862282
LeftShoulder 3.772117 -20.629157 45.977151
LeftArm 36.215195 -26.248847 -36.724697
LeftForeArm 44.228283 -0.000000 52.833124
LeftHand -0.004374 -0.000000 20.833607
LeftHandThumb1 -26.253704 0.000000 33.147579
Head -46.568727 2.457445 -7.765007
838
root 1.474584 31.805396 -8.855429 87.132810 4.483244 1.665499
RightUpLeg -90.949533 -17.099323 -4.290591
RightLeg -1.746604 -0.000000 0.000000
RightFoot -0.611330 -5.753221 17.922776
RightToeBase 7.542382 -0.000000 -0.000000
LeftUpLeg -97.875808 15.875700 8.463172
LeftLeg 5.183364 -0.000000 -0.000000
LeftFoot 1.820382 5.311886 -26.330781
LeftToeBase 9.428570 -0.000000 -0.000000
Spine 42.308917 -3.965642 -7.062293
RightShoulder 6.878650 29.717568 -40.437234
RightArm 51.093211 19.542178 58.345141
RightForeArm -33.178696 -0.000000 45.171540
RightHand 10.633458 -0.000000 -18.734279
RightHandThumb1 -24.326973 -0.000000 -32.862282
LeftShoulder 3.733199 -20.423225 45.784964
LeftArm 35.845545 -26.107214 -36.566294
LeftForeArm 43.795480 -0.000000 52.690485
LeftHand 0.278088 0.000000 21.474423
LeftHandThumb1 -26.253704 0.000000 33.147579
Head -46.342843 2.747128 -8.251846
839
root 1.455823 31.796891 -8.883654 86.928264 4.724600 1.548565
RightUpLeg -90.822529 -16.941952 -3.997972
RightLeg -1.727879 -0.000000 0.000000
RightFoot -0.582060 -5.709122 17.814373
RightToeBase 7.546812 -0.000000 -0.000000
LeftUpLeg -97.775539 15.983915 8.608771
LeftLeg 5.155691 -0.000000 -0.000000
LeftFoot 1.977264 5.201036 -26.411694
LeftToeBase 9.330122 -0.000000 -0.000000
Spine 42.062547 -4.101736 -7.290604
RightShoulder 7.074314 30.362878 -40.422068
RightArm 50.319498 19.053303 58.599427
RightForeArm -32.602000 -0.000000 45.571032
RightHand 10.666216 -0.000000 -18.451731
RightHandThumb1 -24.326973 -0.000000 -32.862282
LeftShoulder 3.750135 -20.250194 45.607528
LeftArm 35.301083 -25.976285 -36.455153
LeftForeArm 43.852656 0.000000 52.591887
LeftHand 0.556546 0.000000 21.792899
LeftHandThumb1 -26.253704 0.000000 33.147579
Head -46.071818 3.136342 -8.747219
840
root 1.441160 31.788323 -8.908159 86.709500 4.916541 1.453444
RightUpLeg -90.711359 -16.815642 -3.660619
RightLeg -1.689493 -0.000000 0.000000
RightFoot -0.534752 -5.533424 17.729712
RightToeBase 7.551488 -0.000000 -0.000000
LeftUpLeg -97.638152 16.060070 8.692906
LeftLeg 5.099980 -0.000000 -0.000000
LeftFoot 2.106553 5.062637 -26.406377
LeftToeBase 9.312373 -0.000000 -0.000000
Spine 41.838275 -4.102802 -7.515488
RightShoulder 7.225025 30.730584 -40.386743
RightArm 49.579806 18.768820 58.804390
RightForeArm -31.965068 -0.000000 46.173158
RightHand 10.476918 0.000000 -17.747550
RightHandThumb1 -24.326973 -0.000000 -32.862282
LeftShoulder 3.893882 -19.812668 45.389364
LeftArm 35.040095 -26.176430 -36.431932
LeftForeArm 43.529192 -0.000000 52.583018
LeftHand 0.687491 -0.000000 21.807261
LeftHandThumb1 -26.253704 0.000000 33.147579
Head -45.795107 3.373328 -9.104020
841
root 1.429512 31.781018 -8.930627 86.498605 5.106483 1.364993
RightUpLeg -90.607470 -16.697963 -3.263811
RightLeg -1.676237 -0.000000 0.000000
RightFoot -0.471735 -5.322236 17.583269
RightToeBase 7.560835 -0.000000 -0.000000
LeftUpLeg -97.480889 16.124504 8.789219
LeftLeg 4.990025 -0.000000 -0.000000
LeftFoot 2.249611 4.990868 -26.414344
LeftToeBase 9.336660 -0.000000 -0.000000
Spine 41.617681 -4.152157 -7.734811
RightShoulder 7.393615 31.296526 -40.332718
RightArm 48.773841 18.333057 58.934460
RightForeArm -31.488201 -0.000000 46.592649
RightHand 10.371257 -0.000000 -17.504785
RightHandThumb1 -24.326973 -0.000000 -32.862282
LeftShoulder 4.119102 -20.132432 45.299588
LeftArm 33.920970 -25.838718 -36.390621
LeftForeArm 43.394448 -0.000000 52.731001
LeftHand 0.595353 -0.000000 22.029562
LeftHandThumb1 -26.253704 0.000000 33.147579
Head -45.512754 3.694913 -9.569203
842
root 1.417789 31.775000 -8.950276 86.322441 5.276661 1.275487
RightUpLeg -90.503768 -16.585290 -2.867558
RightLeg -1.720593 -0.000000 0.000000
RightFoot -0.362464 -5.124455 17.500679
RightToeBase 7.496886 -0.000000 -0.000000
LeftUpLeg -97.330200 16.202180 8.899756
LeftLeg 4.869686 -0.000000 -0.000000
LeftFoot 2.338823 4.950129 -26.537406
LeftToeBase 9.518423 -0.000000 -0.000000
Spine 41.379458 -4.103832 -7.941866
RightShoulder 7.461771 31.607382 -40.291941
RightArm 48.167191 18.022125 59.074374
RightForeArm -30.813196 -0.000000 46.926079
RightHand 10.435124 0.000000 -17.271475
RightHandThumb1 -24.326973 -0.000000 -32.862282
LeftShoulder 4.316539 -19.714313 45.052402
LeftArm 33.571024 -26.059597 -36.357648
LeftForeArm 43.325283 -0.000000 52.638485
LeftHand 0.716956 -0.000000 22.360300
LeftHandThumb1 -26.253704 0.000000 33.147579
Head -45.280732 3.878138 -9.901316
843
root 1.405735 31.767627 -8.969707 86.153883 5.439843 1.195645
RightUpLeg -90.379187 -16.470318 -2.554978
RightLeg -1.792619 -0.000000 0.000000
RightFoot -0.292178 -5.044162 17.372215
RightToeBase 7.537885 -0.000000 -0.000000
LeftUpLeg -97.178701 16.272796 9.030887
LeftLeg 4.750541 -0.000000 -0.000000
LeftFoot 2.501590 4.888991 -26.402667
LeftToeBase 9.235922 -0.000000 -0.000000
Spine 41.176884 -4.107513 -8.187263
RightShoulder 7.518715 32.106089 -40.332271
RightArm 47.432919 17.605687 59.251053
RightForeArm -30.291852 -0.000000 47.167230
RightHand 10.514294 -0.000000 -17.457912
RightHandThumb1 -24.326973 -0.000000 -32.862282
LeftShoulder 4.411113 -19.402203 44.842044
LeftArm 33.095040 -26.221899 -36.378050
LeftForeArm 42.733292 -0.000000 52.722202
LeftHand 0.887601 -0.000000 22.246295
LeftHandThumb1 -26.253704 0.000000 33.147579
Head -45.209856 4.033525 -10.037006
844
root 1.394106 31.761518 -8.984945 85.998413 5.568026 1.128756
RightUpLeg -90.285713 -16.373116 -2.194847
RightLeg -1.861337 -0.000000 0.000000
RightFoot -0.194020 -4.865721 17.228135
RightToeBase 7.497995 -0.000000 -0.000000
LeftUpLeg -96.999095 16.337200 9.169339
LeftLeg 4.605058 -0.000000 -0.000000
LeftFoot 2.572082 4.880077 -26.495412
LeftToeBase 9.279709 -0.000000 -0.000000
Spine 40.960292 -4.074754 -8.455834
RightShoulder 7.602984 32.536079 -40.333887
RightArm 46.723525 17.234148 59.380776
RightForeArm -29.695829 -0.000000 47.357682
RightHand 10.653526 -0.000000 -17.864734
RightHandThumb1 -24.326973 -0.000000 -32.862282
LeftShoulder 4.583086 -19.080629 44.531027
LeftArm 32.667758 -26.430059 -36.337912
LeftForeArm 42.160825 -0.000000 52.738189
LeftHand 1.017649 -0.000000 22.289316
LeftHandThumb1 -26.253704 0.000000 33.147579
Head -45.075048 4.167921 -10.318301
845
root 1.384546 31.756463 -8.996402 85.860719 5.689031 1.064516
RightUpLeg -90.158138 -16.288938 -1.902637
RightLeg -1.982407 -0.000000 0.000000
RightFoot -0.086157 -4.728405 17.140141
RightToeBase 7.497004 -0.000000 -0.000000
LeftUpLeg -96.824848 16.392232 9.297275
LeftLeg 4.435991 -0.000000 -0.000000
LeftFoot 2.705010 4.886702 -26.442086
LeftToeBase 9.122661 -0.000000 -0.000000
Spine 40.765325 -4.053239 -8.723356
RightShoulder 7.678722 33.074600 -40.343891
RightArm 45.973140 16.831979 59.522557
RightForeArm -29.243331 -0.000000 47.528544
RightHand 10.859948 0.000000 -18.153723
RightHandThumb1 -24.326973 -0.000000 -32.862282
LeftShoulder 4.739948 -18.935729 44.242282
LeftArm 32.056974 -26.566515 -36.358158
LeftForeArm 41.574382 -0.000000 52.840750
LeftHand 0.926642 -0.000000 22.199283
LeftHandThumb1 -26.253704 0.000000 33.147579
Head -44.931364 4.496473 -10.852870
